<svg width="150" height="150" viewBox="0 0 150 150" fill="none" xmlns="http://www.w3.org/2000/svg">
<rect width="150" height="150" fill="white"/>
<path d="M28.4347 45.6364V82H19.7521V45.6364H28.4347ZM46.6919 82.5149C43.8274 82.5149 41.3652 81.929 39.3056 80.7571C37.2578 79.5734 35.6775 77.928 34.5648 75.821C33.464 73.7022 32.9135 71.246 32.9135 68.4524C32.9135 65.647 33.464 63.1908 34.5648 61.0838C35.6775 58.965 37.2578 57.3196 39.3056 56.1477C41.3652 54.964 43.8274 54.3722 46.6919 54.3722C49.5565 54.3722 52.0127 54.964 54.0605 56.1477C56.1202 57.3196 57.7005 58.965 58.8013 61.0838C59.914 63.1908 60.4703 65.647 60.4703 68.4524C60.4703 71.246 59.914 73.7022 58.8013 75.821C57.7005 77.928 56.1202 79.5734 54.0605 80.7571C52.0127 81.929 49.5565 82.5149 46.6919 82.5149ZM46.7452 75.9631C47.7869 75.9631 48.6687 75.6435 49.3908 75.0043C50.1129 74.3651 50.6633 73.4773 51.0421 72.3409C51.4327 71.2045 51.628 69.8906 51.628 68.3991C51.628 66.884 51.4327 65.5582 51.0421 64.4219C50.6633 63.2855 50.1129 62.3977 49.3908 61.7585C48.6687 61.1193 47.7869 60.7997 46.7452 60.7997C45.668 60.7997 44.7566 61.1193 44.0108 61.7585C43.2769 62.3977 42.7147 63.2855 42.324 64.4219C41.9453 65.5582 41.7559 66.884 41.7559 68.3991C41.7559 69.8906 41.9453 71.2045 42.324 72.3409C42.7147 73.4773 43.2769 74.3651 44.0108 75.0043C44.7566 75.6435 45.668 75.9631 46.7452 75.9631ZM77.6312 92.7955C75.0389 92.7955 72.8194 92.4344 70.9728 91.7124C69.1262 90.9903 67.6762 90.0019 66.6227 88.7472C65.5692 87.4924 64.9359 86.072 64.7228 84.4858L72.9437 84.0241C73.0976 84.5805 73.3817 85.0658 73.796 85.4801C74.2221 85.8944 74.7725 86.214 75.4473 86.4389C76.1338 86.6638 76.9387 86.7763 77.862 86.7763C79.318 86.7763 80.5195 86.4212 81.4664 85.7109C82.4252 85.0125 82.9047 83.7874 82.9047 82.0355V77.2415H82.6028C82.2595 78.0819 81.7387 78.8336 81.0403 79.4964C80.3419 80.1593 79.4719 80.6802 78.4302 81.0589C77.4004 81.4377 76.2167 81.6271 74.8791 81.6271C72.8904 81.6271 71.0675 81.1655 69.4103 80.2422C67.765 79.3071 66.4451 77.8629 65.4508 75.9098C64.4683 73.9448 63.9771 71.4176 63.9771 68.3281C63.9771 65.1439 64.4861 62.522 65.5041 60.4624C66.5221 58.3909 67.8538 56.858 69.4991 55.8636C71.1563 54.8693 72.9378 54.3722 74.8436 54.3722C76.2759 54.3722 77.501 54.6207 78.519 55.1179C79.5488 55.6032 80.3952 56.2306 81.0581 57C81.7209 57.7694 82.224 58.5684 82.5673 59.397H82.8159V54.7273H91.4629V82.1065C91.4629 84.4148 90.8829 86.362 89.7228 87.9482C88.5628 89.5343 86.9411 90.7358 84.8578 91.5526C82.7744 92.3812 80.3656 92.7955 77.6312 92.7955ZM77.8975 75.3061C78.9511 75.3061 79.8507 75.0279 80.5964 74.4716C81.3422 73.9152 81.9163 73.1162 82.3187 72.0746C82.7212 71.0329 82.9224 69.7841 82.9224 68.3281C82.9224 66.8485 82.7212 65.576 82.3187 64.5107C81.9281 63.4335 81.354 62.6049 80.5964 62.0249C79.8507 61.4448 78.9511 61.1548 77.8975 61.1548C76.8204 61.1548 75.9089 61.4508 75.1632 62.0426C74.4174 62.6345 73.8493 63.469 73.4586 64.5462C73.0798 65.6115 72.8904 66.8722 72.8904 68.3281C72.8904 69.7841 73.0858 71.0329 73.4764 72.0746C73.867 73.1162 74.4293 73.9152 75.1632 74.4716C75.9089 75.0279 76.8204 75.3061 77.8975 75.3061ZM109.729 82.5149C106.864 82.5149 104.402 81.929 102.343 80.7571C100.295 79.5734 98.7146 77.928 97.6019 75.821C96.5011 73.7022 95.9506 71.246 95.9506 68.4524C95.9506 65.647 96.5011 63.1908 97.6019 61.0838C98.7146 58.965 100.295 57.3196 102.343 56.1477C104.402 54.964 106.864 54.3722 109.729 54.3722C112.594 54.3722 115.05 54.964 117.098 56.1477C119.157 57.3196 120.738 58.965 121.838 61.0838C122.951 63.1908 123.507 65.647 123.507 68.4524C123.507 71.246 122.951 73.7022 121.838 75.821C120.738 77.928 119.157 79.5734 117.098 80.7571C115.05 81.929 112.594 82.5149 109.729 82.5149ZM109.782 75.9631C110.824 75.9631 111.706 75.6435 112.428 75.0043C113.15 74.3651 113.7 73.4773 114.079 72.3409C114.47 71.2045 114.665 69.8906 114.665 68.3991C114.665 66.884 114.47 65.5582 114.079 64.4219C113.7 63.2855 113.15 62.3977 112.428 61.7585C111.706 61.1193 110.824 60.7997 109.782 60.7997C108.705 60.7997 107.794 61.1193 107.048 61.7585C106.314 62.3977 105.752 63.2855 105.361 64.4219C104.982 65.5582 104.793 66.884 104.793 68.3991C104.793 69.8906 104.982 71.2045 105.361 72.3409C105.752 73.4773 106.314 74.3651 107.048 75.0043C107.794 75.6435 108.705 75.9631 109.782 75.9631Z" fill="black"/>
</svg>
